<svg width="100" height="100" viewBox="0 0 100 100" fill="none" xmlns="http://www.w3.org/2000/svg">
  <!-- Arch (Inverted U) -->
  <path d="M25 100 V45 C25 31.19 36.19 20 50 20 C63.81 20 75 31.19 75 45 V100" stroke="#1c1917" stroke-width="16" stroke-linecap="butt" />
  
  <!-- Feather - Artistic approximation -->
  <path d="M50 95 C50 95 65 75 68 50 C70 35 60 25 50 25 C40 25 30 35 32 50 C35 75 50 95 50 95 Z" fill="#d97706" opacity="0.9" />
  
  <!-- Feather Spine -->
  <path d="M50 25 Q 48 60 50 95" stroke="white" stroke-width="2" stroke-opacity="0.9" />
  
  <!-- Feather details -->
  <path d="M50 40 L62 48" stroke="white" stroke-width="1" stroke-opacity="0.8" />
  <path d="M50 55 L64 62" stroke="white" stroke-width="1" stroke-opacity="0.8" />
  <path d="M50 70 L60 76" stroke="white" stroke-width="1" stroke-opacity="0.8" />
  <path d="M50 45 L36 52" stroke="white" stroke-width="1" stroke-opacity="0.8" />
  <path d="M50 60 L34 68" stroke="white" stroke-width="1" stroke-opacity="0.8" />
</svg>